<?xml version="1.0" encoding="UTF-8"?>
<svg width="116" height="32" viewBox="0 0 116 32" fill="none" xmlns="http://www.w3.org/2000/svg">
  <path d="M33.5696 30.2968V10.7968H37.4474V13.1789H37.6229C37.7952 12.7972 38.0445 12.4094 38.3707 12.0155C38.7031 11.6154 39.134 11.283 39.6634 11.0183C40.1989 10.7475 40.8636 10.6121 41.6577 10.6121C42.6918 10.6121 43.6458 10.8829 44.5199 11.4246C45.3939 11.9601 46.0926 12.7695 46.6158 13.8529C47.139 14.93 47.4006 16.2811 47.4006 17.9061C47.4006 19.488 47.1451 20.8237 46.6342 21.9132C46.1295 22.9966 45.4401 23.8183 44.5661 24.3784C43.6982 24.9324 42.7256 25.2094 41.6484 25.2094C40.8852 25.2094 40.2358 25.0832 39.7003 24.8308C39.1709 24.5785 38.737 24.2615 38.3984 23.8799C38.0599 23.4921 37.8014 23.1012 37.6229 22.7073H37.5028V30.2968H33.5696Z" fill="currentColor" class="fill-blue-600 dark:fill-white"/>
  <path d="M1 28.9786V15.9786C1 9.35116 6.37258 3.97858 13 3.97858C19.6274 3.97858 25 9.35116 25 15.9786C25 22.606 19.6274 27.9786 13 27.9786H12" class="stroke-blue-600 dark:stroke-white" stroke="currentColor" stroke-width="2"/>
  <path d="M5 28.9786V16.1386C5 11.6319 8.58172 7.97858 13 7.97858C17.4183 7.97858 21 11.6319 21 16.1386C21 20.6452 17.4183 24.2986 13 24.2986H12" class="stroke-blue-600 dark:stroke-white" stroke="currentColor" stroke-width="2"/>
  <circle cx="13" cy="16" r="5" fill="currentColor" class="fill-blue-600 dark:fill-white"/>
</svg> 